<!-- icon666.com - MILLIONS vector ICONS FREE --><svg id="Glyph" enable-background="new 0 0 32 32" viewBox="0 0 32 32" xmlns="http://www.w3.org/2000/svg"><path id="XMLID_448_" d="m17 27v2c0 .552-.448 1-1 1s-1-.448-1-1v-2c0-.552.448-1 1-1s1 .448 1 1z"></path><path id="XMLID_450_" d="m30 16c0 .552-.448 1-1 1h-2c-.552 0-1-.448-1-1s.448-1 1-1h2c.552 0 1 .448 1 1z"></path><path id="XMLID_452_" d="m6 16c0 .552-.448 1-1 1h-2c-.552 0-1-.448-1-1s.448-1 1-1h2c.552 0 1 .448 1 1z"></path><path id="XMLID_454_" d="m8.707 23.293c.391.391.391 1.023 0 1.414l-1.192 1.192c-.391.391-1.023.391-1.414 0s-.391-1.023 0-1.414l1.192-1.192c.391-.391 1.023-.391 1.414 0z"></path><path id="XMLID_456_" d="m25.899 24.485c.391.391.391 1.023 0 1.414s-1.023.391-1.414 0l-1.192-1.192c-.391-.391-.391-1.023 0-1.414s1.023-.391 1.414 0z"></path><path id="XMLID_458_" d="m16 2c.552 0 1 .448 1 1v2c0 .552-.448 1-1 1s-1-.448-1-1v-2c0-.552.448-1 1-1z"></path><path id="XMLID_460_" d="m7.515 6.101 1.192 1.192c.391.391.391 1.023 0 1.414s-1.023.391-1.414 0l-1.192-1.192c-.391-.391-.391-1.023 0-1.414s1.023-.391 1.414 0z"></path><path id="XMLID_462_" d="m23.293 8.707c-.391-.391-.391-1.023 0-1.414l1.192-1.192c.391-.391 1.023-.391 1.414 0s.391 1.023 0 1.414l-1.192 1.192c-.391.391-1.023.391-1.414 0z"></path><path id="XMLID_464_" d="m16 8c-4.411 0-8 3.589-8 8s3.589 8 8 8 8-3.589 8-8-3.589-8-8-8z"></path></svg>