<!-- icon666.com - MILLIONS vector ICONS FREE --><svg id="Capa_1" enable-background="new 0 0 511.95 511.95" viewBox="0 0 511.95 511.95" xmlns="http://www.w3.org/2000/svg"><g><g><g><path d="m501.95 244.967h-82.924c-4.824 0-9.451-1.785-13.027-5.024l-26.057-23.609c-8.763-7.938-20.099-12.31-31.92-12.31h-183.692c-11.822 0-23.158 4.372-31.921 12.31l-26.055 23.607c-3.578 3.241-8.205 5.025-13.029 5.025h-82.923c-5.523 0-10 4.477-10 10v27.782c0 5.523 4.477 10 10 10s10-4.477 10-10v-17.782h72.923c9.796 0 19.192-3.623 26.457-10.203l26.056-23.608c5.077-4.599 11.644-7.132 18.493-7.132h52.97c.009 0 .018.001.027.001 14.268.007 28.231 5.702 38.457 15.636.187.182.38.353.565.538l59.956 59.956c-16.913 10.449-39.573 7.795-53.617-6.252-11.535-11.535-26.396-18.535-42.421-20.105-2.289-.224-4.602-.338-6.933-.338l-28.978.001c-5.523 0-10 4.477-10 10s4.477 10 10 10h2.277l-68.878 68.878c-6.527 6.528-10.474 15.406-10.867 24.636h-86.487v-16.365c0-5.523-4.477-10-10-10s-10 4.477-10 10v26.365c0 5.523 4.477 10 10 10h101.335c1.724 3.053 3.985 6.302 6.709 8.559 8.659 7.176 17.781 10.581 26.872 10.236-.333 10.056 3.599 21.627 11.567 28.202 13.496 11.173 28.11 13.209 42.015 6.105 1.659 6.931 5.291 13.239 10.607 18.27 12.149 11.506 30.605 13.003 44.695 4.714 1.696 6.216 5.169 12.73 10.125 16.968 15.404 13.16 37.152 14.318 52.081-.611l86.777-86.767c3.601-3.607 8.596-5.677 13.704-5.677h85.062c5.523 0 10-4.477 10-10v-142.006c-.001-5.523-4.478-10-10.001-10zm-10 142.009h-75.062c-10.379 0-20.534 4.209-27.852 11.541l-86.49 86.48c-8.823 7.461-16.084 7.491-24.91.097-6.434-6.713-6.348-17.413.257-24.029l.001-.001 31.299-31.299c3.905-3.905 3.905-10.237 0-14.143s-10.237-3.905-14.143 0l-47.454 47.464c-6.736 6.736-17.653 7.069-24.34.736-6.353-6.012-7.821-18.654-.352-24.629l39.472-39.472c3.905-3.905 3.905-10.237 0-14.143-3.905-3.905-10.237-3.905-14.143 0l-53.269 53.27c-8.833 7.161-16.116 7.17-24.942.031-6.329-6.645-6.177-17.486.308-23.97l46.944-46.945c3.905-3.905 3.905-10.237 0-14.142s-10.237-3.905-14.142 0l-46.534 46.534c-8.862 7.217-16.159 7.255-25.006.093-6.206-6.538-6.139-17.603.306-23.969l82.998-82.999c3.974.122 7.867.707 11.619 1.73 8.253 2.25 15.818 6.619 22.03 12.832 24.473 24.464 65.319 24.465 89.793 0 2.929-2.929 3.661-7.223 2.197-10.835-.047-.115-.106-.225-.157-.338-.083-.184-.16-.369-.255-.549-.458-.871-1.053-1.689-1.785-2.421l-67.848-67.847c-.691-.691-1.396-1.369-2.114-2.031h79.645c6.849 0 13.417 2.533 18.493 7.131l26.057 23.609c7.263 6.579 16.658 10.202 26.455 10.202h72.924z"></path><path d="m255.886 176.618c48.228 0 87.464-39.236 87.464-87.464s-39.236-87.464-87.464-87.464-87.464 39.236-87.464 87.464 39.237 87.464 87.464 87.464zm0-154.928c37.2 0 67.464 30.264 67.464 67.464s-30.264 67.464-67.464 67.464-67.464-30.264-67.464-67.464 30.264-67.464 67.464-67.464z"></path><path d="m238.128 126.928c3.852 3.852 10.29 3.852 14.143 0l46.111-46.111c3.905-3.905 3.905-10.237 0-14.143s-10.237-3.905-14.143 0l-39.04 39.041-15.931-15.931c-3.905-3.905-10.237-3.905-14.143 0s-3.905 10.237 0 14.143z"></path><path d="m1.64 332.805c3.026 4.541 9.325 5.769 13.86 2.76 4.551-3.018 5.762-9.34 2.76-13.87-3.009-4.541-9.342-5.768-13.86-2.76-4.565 3.04-5.74 9.317-2.76 13.87z"></path></g></g></g></svg>