<!-- icon666.com - MILLIONS vector ICONS FREE --><svg version="1.1" id="Layer_1" xmlns="http://www.w3.org/2000/svg" xmlns:xlink="http://www.w3.org/1999/xlink" x="0px" y="0px" viewBox="0 0 512 512" style="enable-background:new 0 0 512 512;" xml:space="preserve"><g><g><path d="M256,0C115.031,0,0,115.049,0,256c0,140.97,115.049,256,256,256c140.968,0,256-115.049,256-256 C512,115.032,396.951,0,256,0z M256,482C131.383,482,30,380.617,30,256S131.383,30,256,30s226,101.383,226,226 S380.617,482,256,482z"></path></g></g><g><g><path d="M256,60C148.337,60,60,148.368,60,256c0,107.663,88.368,196,196,196c107.663,0,196-88.368,196-196 C452,148.337,363.632,60,256,60z M271,421.315V407c0-8.284-6.716-15-15-15s-15,6.716-15,15v14.315 C161.413,414.152,97.848,350.587,90.685,271H105c8.284,0,15-6.716,15-15s-6.716-15-15-15H90.685 C97.848,161.413,161.413,97.848,241,90.685V105c0,8.284,6.716,15,15,15s15-6.716,15-15V90.685 C350.587,97.848,414.152,161.413,421.315,241H407c-8.284,0-15,6.716-15,15s6.716,14.9,15,14.9h14.315 C414.152,350.487,350.587,414.152,271,421.315z"></path></g></g><g><g><path d="M317,241h-46v-76c0-8.284-6.716-15-15-15s-15,6.716-15,15v91c0,8.284,6.716,15,15,15h61c8.284,0,15-6.716,15-15 S325.284,241,317,241z"></path></g></g></svg>